<?xml version="1.0" encoding="utf-8"?>
<!-- Generator: Adobe Illustrator 16.0.0, SVG Export Plug-In . SVG Version: 6.00 Build 0)  -->
<!DOCTYPE svg PUBLIC "-//W3C//DTD SVG 1.1//EN" "http://www.w3.org/Graphics/SVG/1.1/DTD/svg11.dtd">
<svg version="1.1" id="Ebene_1" xmlns="http://www.w3.org/2000/svg" xmlns:xlink="http://www.w3.org/1999/xlink" x="0px" y="0px"
	 width="3067.768px" height="2670.522px" viewBox="0 0 3067.768 2670.522" enable-background="new 0 0 3067.768 2670.522"
	 xml:space="preserve">
<g>
	<path fill-rule="evenodd" clip-rule="evenodd" fill="#FFFFFF" d="M1909.794,2669.339c0-78.309,0.467-150.868-0.135-223.417
		c-0.563-67.145,14.51-140.779-8.256-199.568c-22.23-57.393-83.496-99.729-127.863-148.453
		c-35.153-38.609-68.796-78.893-106.909-114.344c-15.973-14.856-41.2-24.85-63.206-27.033c-42.19-4.186-85.367,1.858-127.598-2.071
		c-40.302-3.759-60.085,14.842-75.837,47.966c-72.597,152.665-122.241,312.063-140.811,480.283
		c-6.583,59.666-7.712,119.939-11.715,186.277c-42.446,0-87.447,1.691-132.044-1.768c-6.932-0.537-17.14-24.566-17.219-37.777
		c-1.133-185.51-0.765-371.027-0.761-556.542c0-27.485-0.933-55.012,0.293-82.441c1.069-24.003-8.886-32.48-32.624-36.874
		c-172.281-31.861-284.36-167.754-284.293-342.865c0.087-236.317-0.067-472.641,1.53-708.943
		c0.205-30.443-18.482-29.012-36.771-31.691C625.65,852.518,512.934,813.8,410.862,748.641
		C152.163,583.504,18.734,344.936,0.291,39.888C-1.348,12.793,3.147-2.554,34.543,0.35C60.421,2.737,86.755-8.062,89.705,38
		c18.42,287.958,158.476,502.604,402.661,651.985c10.06,6.157,21.174,10.586,31.793,15.816c4.292-4.554,8.583-9.112,12.877-13.666
		c-11.289-6.421-24.486-10.86-33.579-19.576c-97.451-93.405-149.742-208.691-162.263-342.348
		c-1.872-19.98-11.423-45.465,26.409-46.733c30.662-1.033,42.796,7.311,45.824,40.462
		c17.282,189.343,111.702,327.196,290.191,395.367c178.438,68.157,346.886,40.27,493.556-85.326
		c90.749-77.714,136.296-180.819,149.655-298.708c6.473-57.05,9.882-59.252,73.196-44.356
		c-1.949,163.92-68.158,298.298-184.869,414.845c11.029-5.366,22.602-9.861,33.021-16.227
		c244.442-149.341,383.421-364.88,402.927-652.249c3.464-51.029,34.606-33.838,59.652-36.472
		c32.846-3.454,29.01,18.183,27.884,40.258c-21.482,422.357-300.954,743.769-717.187,824.299c-5.22,1.006-10.266,2.935-23.999,6.946
		c13.358,10.384,21.427,17.772,30.523,23.551c73.055,46.408,146.876,91.635,219.159,139.198
		c23.835,15.684,46.346,34.984,65.066,56.461c30.921,35.48,17.064,72.625-29.441,81.496c-22.737,4.338-46.654,2.11-69.722,5.224
		c-32.574,4.391-68.05,4.3-96.632,17.958c-69.1,33.014-133.378,19.175-198.806-6.857c-25.056-9.971-50.336-19.377-76.853-29.552
		c-11.344,38.744-7.519,62.232,31.908,78.016c79.783,31.935,152.447,73.063,195.008,155.801
		c11.265,21.896,48.201,40.762,74.762,42.818c103.834,8.047,208.219,11.173,312.418,11.614
		c111.215,0.466,222.47-6.574,333.688-6.034c185.099,0.897,290.409,174.736,210.451,342.265
		c-66.51,139.357-66.604,278.019,7.87,415.368c7.398,13.647,10.874,31.066,10.976,46.763c0.845,127.794-0.401,255.607,1.055,383.386
		c0.346,30.355-8.034,42.63-39.413,40.038C1971.224,2667.494,1942.633,2669.339,1909.794,2669.339z"/>
	<path fill-rule="evenodd" clip-rule="evenodd" fill="#FFFFFF" d="M1057.846,2027.297c-26.061,69.611-58.162,143.99-81.746,220.979
		c-37.286,121.706-48.637,247.814-47.349,374.77c0.349,34.508-8.538,50.73-46.387,46.937c-32.203-3.234-64.99-0.667-99.086-0.667
		c0-253.964,0-501.768,0-744.345C874.99,1959.146,966.219,1993.15,1057.846,2027.297z"/>
	<path fill-rule="evenodd" clip-rule="evenodd" fill="#FFFFFF" d="M1449.644,2669.301c36.979-126.382,69.838-243.88,106.292-360.255
		c11.536-36.83,10.46-67.136-8.696-101.21c-34.037-60.537-63.543-123.621-94.942-185.637c1.909-3.848,3.815-7.688,5.721-11.529
		c28.398,4.545,58.329,4.851,84.902,14.446c72.784,26.291,121.154,77.671,159.775,146.063
		c31.519,55.814,32.633,98.688,8.612,158.491c-38.621,96.18-62.28,198.619-88.33,299.435c-7.43,28.744-14.389,43.286-46.927,40.883
		C1536.784,2667.093,1497.141,2669.301,1449.644,2669.301z"/>
</g>
<path fill="#FFFFFF" d="M3067.768,538.52h-403.89v403.89h-134.63V538.52h-403.89V403.89h403.89V0h134.63v403.89h403.89V538.52z"/>
</svg>
